<svg id="Layer_1" data-name="Layer 1" xmlns="http://www.w3.org/2000/svg" xmlns:xlink="http://www.w3.org/1999/xlink" viewBox="0 0 727.05 724.72"><defs><style>.cls-1{fill:none;}.cls-2{clip-path:url(#clip-path);}.cls-3{stroke:#fff;stroke-miterlimit:10;}.cls-4{fill:#fff;}</style><clipPath id="clip-path" transform="translate(-275.31 -259.75)"><circle class="cls-1" cx="640" cy="622.11" r="361.82" transform="translate(-75.08 88) rotate(-7.43)"/></clipPath></defs><title>b_icon</title><g class="cls-2"><circle class="cls-3" cx="640" cy="622.11" r="361.82" transform="translate(-350.39 -171.75) rotate(-7.43)"/><path class="cls-4" d="M636.26,289.29a568,568,0,0,1,103.83-4.21q50.77,2.71,91.47,17.93t68,44.64q27.29,29.42,33.52,77.13,7.5,57.53-21.87,93.07t-73.27,58.71l0.32,2.45q56.43,10.08,98.78,42.49t51.44,102.17q4.79,36.7-6.13,69.86T945,853.76q-26.37,27.09-67.37,45.49t-95.19,25.48l-423.22,55.2-2.87-22q32.27-4.21,29.42-26.23L313.34,376.2q-2.87-22-35.16-17.81l-2.87-22Zm55.94,249q51.89-6.77,84.08-25.28t26.28-63.78q-5.9-45.25-41.76-54.9T673,391.5L452.79,420.23l19.15,146.82Zm36.38,279q72.65-9.48,101.25-37.47t23.49-67.15q-5.11-39.14-39.93-58.88T705.92,643.55L485.66,672.27,508.32,846Z" transform="translate(-275.31 -259.75)"/></g></svg>